# xmcd
#
# Track frame offsets:
#	150
#	9736
#	24576
#	35962
#	49707
#	59722
#	71022
#	83211
#	94883
#	110142
#	118422
#	127596
#
# Disc length: 1842 seconds
#
# Revision: 0
# Processed by: cddbd v1.4PL0 Copyright (c) Steve Scherf et al.
# Submitted via: EasyCDDAExtractor 4.6.9.1
#
DISCID=af07300c
DTITLE=Marty Robbins - Rock'n Roll'n Robbims
DYEAR=1996
DGENRE=Country
TTITLE0=Long Tall Sally
TTITLE1=Tennessee Toddy
TTITLE2=Maybellene
TTITLE3=Respectfully Miss Brooks
TTITLE4=Mean Mama Blues
TTITLE5=Long Gone Lonesome Blues
TTITLE6=Pretty Mama
TTITLE7=That's All Right
TTITLE8=Baby's Gone
TTITLE9=Teenager's Dad
TTITLE10=Ruby Ann
TTITLE11=Grown Up Tears
EXTD=
EXTT0=
EXTT1=
EXTT2=
EXTT3=
EXTT4=
EXTT5=
EXTT6=
EXTT7=
EXTT8=
EXTT9=
EXTT10=
EXTT11=
PLAYORDER=
